<svg id="Component_53_1" data-name="Component 53 – 1" xmlns="http://www.w3.org/2000/svg" width="346" height="350.718" viewBox="0 0 346 350.718">
  <path id="Path_6423" data-name="Path 6423" d="M168.171-9.851C76.495-9.851-1.339,64.634-1.339,138.1S62.4,281.075,143.991,284.886,323.749,211.56,323.749,138.1,259.848-9.851,168.171-9.851Z" transform="translate(22.251 9.851)" fill="#00c569" opacity="0.63"/>
  <path id="Path_6422" data-name="Path 6422" d="M140.17-9.851c83.386,0,154.182,69.071,154.182,137.194S236.378,259.928,162.163,263.462s-163.5-68-163.5-136.119S56.783-9.851,140.17-9.851Z" transform="translate(30.994 46.135)" fill="#fff" opacity="0.38"/>
  <g id="City_driver-pana" data-name="City driver-pana" transform="translate(-11.008 87.695)">
    <g id="freepik--background-complete--inject-4" transform="translate(25.136 23)">
      <path id="Path_1" data-name="Path 1" d="M233.234,60.078a8.255,8.255,0,0,1,1.751,5.664,14.624,14.624,0,0,1-1.63,5.827c-1.711,3.483-4.911,6.312-7.981,8.313-1.761-3.945-.674-8.921,0-11.4,1.092-3.945,5.2-10.274,7.84-8.4" transform="translate(81.57 5.68)" fill="#fff"/>
      <path id="Path_2" data-name="Path 2" d="M225.71,78.359a6.346,6.346,0,0,1,3.85-4.937,7,7,0,0,1,5.958.564A3.488,3.488,0,0,1,237.4,76.24a3,3,0,0,1-.926,2.632A4.76,4.76,0,0,1,234.053,80c-3.019.564-5.983.518-8.344-1.623" transform="translate(82.215 14.697)" fill="#fff"/>
      <path id="Path_3" data-name="Path 3" d="M220.624,86.482a4.938,4.938,0,0,1,.372-.7l1.077-1.871a22.8,22.8,0,0,1,4.247-5.636,11.9,11.9,0,0,1,5.963-3.032,7.472,7.472,0,0,1,2.013-.056,4.109,4.109,0,0,1,.538.085c.126,0,.186.039.186.051a11.964,11.964,0,0,0-2.7.124,12.383,12.383,0,0,0-5.847,3.094,23.631,23.631,0,0,0-4.252,5.506c-.478.772-.866,1.4-1.147,1.82A4,4,0,0,1,220.624,86.482Z" transform="translate(79.672 16.15)"/>
      <path id="Path_4" data-name="Path 4" d="M232.461,63a2.406,2.406,0,0,1-.091.344l-.292.964c-.262.84-.654,2.04-1.147,3.522-1.006,2.964-2.41,7.039-4.066,11.5s-3.236,8.454-4.418,11.339c-.589,1.437-1.077,2.592-1.419,3.381-.166.372-.3.676-.4.913a1.965,1.965,0,0,1-.156.31,1.7,1.7,0,0,1,.106-.332c.1-.242.211-.564.362-.941l1.344-3.426c1.137-2.9,2.692-6.9,4.348-11.362s3.1-8.516,4.131-11.463l1.223-3.489c.141-.383.252-.7.342-.941A1.658,1.658,0,0,1,232.461,63Z" transform="translate(79.595 7.899)"/>
      <path id="Path_5" data-name="Path 5" d="M224.443,82.287a16.608,16.608,0,0,0-3.09-13.526c-.735-.919-1.817-1.787-2.853-1.369s-1.369,1.865-1.389,3.1a13.163,13.163,0,0,0,7.156,12.055" transform="translate(77.916 10.809)" fill="#fff"/>
      <path id="Path_6" data-name="Path 6" d="M219.408,70.354a3.3,3.3,0,0,1,.478.564,6.27,6.27,0,0,1,.5.693c.186.287.418.592.624.975q.359.606.659,1.251a15.25,15.25,0,0,1,.639,1.5,17.367,17.367,0,0,1,1.006,7.507,15.475,15.475,0,0,1-.226,1.651,13.039,13.039,0,0,1-.327,1.409q-.151.574-.357,1.127a6.956,6.956,0,0,1-.332.823,4.04,4.04,0,0,1-.327.676c-.055,0,.413-1,.845-2.688q.177-.687.287-1.392.14-.808.2-1.629a19.128,19.128,0,0,0-.106-3.759,19.6,19.6,0,0,0-.881-3.624c-.2-.535-.387-1.043-.609-1.5q-.286-.643-.629-1.251C220.011,71.194,219.337,70.394,219.408,70.354Z" transform="translate(79.061 12.896)"/>
      <path id="Path_7" data-name="Path 7" d="M22.527,39.143s-4.63,1.691-.141,12.793a148.411,148.411,0,0,0,7.694,16.67s.77,2.564-1.142,2.857-6.039-.671-7,1.882c-1.006,2.643.654,5.275,4.1,7.693s10.829,8.014,11.494,8.521,1.278,1.691,0,2.142-10.7,1.037-10.18,6.03,11.121,9.975,12.259,10.539,1.4,1.127,1.278,1.849-3.311.564-5.988.879-5.732,1.161-5.213,4.013,6.653,9.113,22.081,11.626l7.216.642,4.217-6.633c8.263-14.8,7.961-24.093,6.356-26.381s-4.177-.237-6.1,1.86-3.905,4.9-4.469,4.548-.79-.941-.438-2.288,3.83-13.6.765-17.279-9.561,3.99-10.688,4.8-1.535-.507-1.454-1.392S48.2,73.7,48.785,69.187s-.146-7.608-2.587-8.454c-2.355-.834-4.378,3.325-5.812,4.768s-2.682-.874-2.682-.874a151.853,151.853,0,0,0-6.386-17.347c-4.67-11.023-8.892-8.053-8.892-8.053" transform="translate(-20.427 -8.513)" fill="#00c569"/>
      <path id="Path_8" data-name="Path 8" d="M57.25,125.049c-3.4-8.115-9.229-22.644-14.292-35.088s-9.652-23.7-13.018-31.83L25.95,48.505,24.868,45.89l-.277-.688a2.4,2.4,0,0,1-.1-.248s.04.073.111.225l.3.676c.257.6.634,1.477,1.122,2.6.971,2.254,2.355,5.529,4.056,9.581,3.4,8.11,8.016,19.359,13.084,31.8S54.03,116.844,57.4,124.982" transform="translate(-18.395 -4.372)" fill="#fff"/>
      <path id="Path_9" data-name="Path 9" d="M25.262,60.347a2.574,2.574,0,0,1,.5.186c.312.13.765.338,1.318.6,1.107.524,2.622,1.291,4.282,2.17L35.6,65.554l1.288.676a2.618,2.618,0,0,1,.463.27,1.952,1.952,0,0,1-.5-.18c-.317-.13-.765-.338-1.318-.6-1.107-.564-2.612-1.324-4.267-2.2L27.013,61.26l-1.288-.671a2.168,2.168,0,0,1-.463-.242Z" transform="translate(-18.009 6.092)" fill="#fff"/>
      <path id="Path_10" data-name="Path 10" d="M33.663,70.158c-.055,0,1.218-3.6,2.843-7.963s3.019-7.89,3.05-7.89-1.213,3.6-2.843,7.969S33.723,70.158,33.663,70.158Z" transform="translate(-13.809 1.985)" fill="#fff"/>
      <path id="Path_11" data-name="Path 11" d="M38.332,80.269a2.821,2.821,0,0,1,.317-.479c.242-.344.549-.766.911-1.268.765-1.071,1.822-2.559,2.934-4.244s2.073-3.241,2.763-4.379l.815-1.347a3.248,3.248,0,0,1,.317-.479,2.326,2.326,0,0,1-.247.53c-.171.338-.428.812-.755,1.392-.654,1.167-1.6,2.75-2.717,4.435s-2.189,3.162-2.989,4.2c-.4.518-.73.936-.966,1.217a2.328,2.328,0,0,1-.382.417Z" transform="translate(-11.474 11.345)" fill="#fff"/>
      <path id="Path_12" data-name="Path 12" d="M30.059,73.956a1.8,1.8,0,0,1,.5.034l1.334.186c1.122.175,2.672.428,4.383.721s3.256.564,4.373.789l1.323.271a1.837,1.837,0,0,1,.478.13,1.8,1.8,0,0,1-.5-.034l-1.329-.186c-1.127-.175-2.677-.428-4.388-.721s-3.256-.564-4.373-.789l-1.318-.271A2.037,2.037,0,0,1,30.059,73.956Z" transform="translate(-15.61 15.342)" fill="#fff"/>
      <path id="Path_13" data-name="Path 13" d="M32.877,84.727a2.914,2.914,0,0,1,.629.051l1.711.237c1.439.209,3.427.513,5.621.868s4.182.688,5.616.947l1.7.31a3.593,3.593,0,0,1,.619.152,2.954,2.954,0,0,1-.634-.051L46.434,87c-1.439-.209-3.432-.518-5.626-.874s-4.182-.688-5.616-.941l-1.7-.316A3.076,3.076,0,0,1,32.877,84.727Z" transform="translate(-14.201 22.667)" fill="#e0e0e0"/>
      <path id="Path_14" data-name="Path 14" d="M43.234,92.53a4.347,4.347,0,0,1,.387-.626c.282-.428.654-.981,1.1-1.651.931-1.4,2.209-3.331,3.568-5.512s2.546-4.187,3.392-5.636l1.006-1.73a4.716,4.716,0,0,1,.387-.62,4.534,4.534,0,0,1-.317.671c-.216.423-.538,1.031-.946,1.77-.815,1.488-1.983,3.517-3.346,5.7S45.81,89,44.844,90.371c-.5.682-.881,1.234-1.162,1.606A3.743,3.743,0,0,1,43.234,92.53Z" transform="translate(-9.023 17.248)" fill="#e0e0e0"/>
      <path id="Path_15" data-name="Path 15" d="M128.172,118.1c-12.893-7.264-17.744-23.845-19.253-39.208-.252-2.564-.85-5.213-.055-7.625s3.125-4.356,5.3-3.607c1.807.614,2.828,2.7,4.026,4.368a13.588,13.588,0,0,0,6.084,4.852c1.56.609,3.422.834,4.74-.282,1.807-1.533,1.646-4.61,1.3-7.146q-.956-7.1-1.912-14.179a26.743,26.743,0,0,1-.287-7.648c.393-2.525,1.661-5.01,3.729-6.036a4.128,4.128,0,0,1,5.691,2.344,27.019,27.019,0,0,1,.473,3.15c.2,1.043.785,2.136,1.716,2.288s1.761-.716,2.34-1.572c2.013-2.936,3.17-6.5,4.232-10.02a50.754,50.754,0,0,1,3.825-10.257c1.761-3.139,4.413-5.827,7.629-6.56A7.2,7.2,0,0,1,166,25.356c1.278,3.438-.111,7.377-1.766,10.6a56.673,56.673,0,0,1-9.058,12.962,4.888,4.888,0,0,0-1.51,2.406c-.272,1.77,1.374,3.218,2.939,3.534,1.771.355,3.578-.135,5.374-.192s3.824.513,4.735,2.254c1.263,2.446-.322,5.478-2.013,7.569a44.889,44.889,0,0,1-11.75,10.364,14.634,14.634,0,0,0-4.433,3.381c-1.178,1.544-1.691,3.945-.649,5.6a4.014,4.014,0,0,0,4.9,1.245c1.7-.648,3.125-1.961,4.7-2.931,2.944-1.82,6.995-2.254,9.38.456a8.831,8.831,0,0,1,1.681,6.983,19.835,19.835,0,0,1-2.627,6.825c-4.147,7.366-9.853,13.683-16.717,17.657s-13.456,5.816-21.015,4.041" transform="translate(23.592 -20.797)" fill="#fff"/>
      <path id="Path_16" data-name="Path 16" d="M123.122,107.3a254.978,254.978,0,0,1,4.9-25.789l1.6-6.69c.528-2.192,1.052-4.368,1.681-6.459a122.734,122.734,0,0,1,4.232-11.79c1.51-3.674,3.055-7.1,4.529-10.3s2.909-6.137,4.308-8.758a91.88,91.88,0,0,1,7.433-11.8c.971-1.313,1.756-2.3,2.295-2.964l.614-.75a1.864,1.864,0,0,1,.221-.248,1.552,1.552,0,0,1-.186.276l-.589.783c-.5.682-1.278,1.691-2.229,3.021a97.479,97.479,0,0,0-7.307,11.835c-1.384,2.626-2.793,5.574-4.252,8.769s-2.994,6.628-4.489,10.3a124.185,124.185,0,0,0-4.207,11.779c-.624,2.085-1.142,4.238-1.671,6.436s-1.052,4.43-1.59,6.684a259.654,259.654,0,0,0-4.927,25.733" transform="translate(30.921 -20.147)" fill="#fff"/>
      <path id="Path_17" data-name="Path 17" d="M130.959,60.56a5.523,5.523,0,0,1-.362-1.048c-.206-.682-.5-1.691-.805-2.914-.644-2.48-1.434-5.929-2.29-9.738s-1.691-7.242-2.365-9.7c-.337-1.229-.619-2.22-.82-2.9a5.829,5.829,0,0,1-.272-1.082,5.156,5.156,0,0,1,.423,1.014c.252.665.574,1.646.951,2.869.75,2.435,1.63,5.867,2.491,9.682l2.169,9.767q.4,1.758.679,2.953a5.435,5.435,0,0,1,.2,1.1Z" transform="translate(31.383 -12.38)" fill="#fff"/>
      <path id="Path_18" data-name="Path 18" d="M157,43.039a5.768,5.768,0,0,1-1.142.344c-.735.2-1.807.473-3.115.862-2.627.755-6.225,1.939-10.14,3.438s-7.407,3.049-9.9,4.238c-1.253.564-2.254,1.093-2.949,1.437a5.812,5.812,0,0,1-1.1.5,6.141,6.141,0,0,1,1.006-.665c.674-.395,1.661-.947,2.9-1.578a105.765,105.765,0,0,1,9.888-4.379,94.65,94.65,0,0,1,10.205-3.314c1.324-.349,2.405-.564,3.155-.716A5.575,5.575,0,0,1,157,43.039Z" transform="translate(33.687 -5.675)" fill="#fff"/>
      <path id="Path_19" data-name="Path 19" d="M130,88.167a1.678,1.678,0,0,1-.252-.361c-.176-.3-.387-.665-.649-1.127-.564-.958-1.344-2.367-2.285-4.12-1.887-3.511-4.358-8.454-7.02-13.948S114.7,58.18,112.877,54.657l-2.164-4.193-.584-1.127a1.891,1.891,0,0,1-.181-.417,1.62,1.62,0,0,1,.252.366l.649,1.127c.564.958,1.344,2.367,2.285,4.125,1.887,3.511,4.363,8.454,7.045,13.948s5.088,10.449,6.909,14l2.164,4.2c.236.456.428.84.584,1.127a1.823,1.823,0,0,1,.161.355Z" transform="translate(24.334 -1.676)" fill="#fff"/>
      <path id="Path_20" data-name="Path 20" d="M160.23,60.236a1.634,1.634,0,0,1-.362.237l-1.067.58-3.95,2.175c-3.336,1.843-7.921,4.441-12.978,7.326s-9.672,5.433-13.044,7.2c-1.686.879-3.055,1.578-4.026,2.04l-1.1.518a1.264,1.264,0,0,1-.4.152,1.822,1.822,0,0,1,.362-.237l1.067-.6,3.955-2.175c3.336-1.837,7.916-4.435,12.978-7.326s9.667-5.433,13.039-7.2c1.686-.879,3.055-1.578,4.026-2.04l1.1-.518a1.251,1.251,0,0,1,.4-.13Z" transform="translate(31.012 6.017)" fill="#fff"/>
      <path id="Path_21" data-name="Path 21" d="M198.4,42.324c0-9.2-8.625-15.019-17.422-10.415a10.625,10.625,0,0,0-4.63,4.971c-2.209,4.8-1.233,10.28.775,14.833l6.844,19.426a2.846,2.846,0,0,0,5.5,0l6.713-19.533C198.494,45.638,198.4,42.324,198.4,42.324Zm-8.263,8c-5.913,3.849-11.906-3.269-8.665-10.291a5.314,5.314,0,0,1,1.882-2.254c5.913-3.849,11.9,3.269,8.661,10.291A5.306,5.306,0,0,1,190.136,50.326Z" transform="translate(56.904 -14.337)" fill="#fff"/>
    </g>
    <g id="freepik--Floor--inject-4" transform="translate(14.655 261.49)">
      <path id="Path_22" data-name="Path 22" d="M350.57,149.041c0,.085-75.484.147-168.55.147s-168.58-.062-168.58-.147,75.453-.147,168.58-.147S350.57,148.962,350.57,149.041Z" transform="translate(-13.439 -148.894)" fill="#263238"/>
    </g>
    <g id="freepik--Device--inject-4" transform="translate(76.23 17.556)">
      <path id="Path_23" data-name="Path 23" d="M135.881,261.637l-66.889-.38c-8.04-.062-14.525-8.164-14.5-18.118l.71-207.62c.047-9.96,6.595-17.994,14.639-17.963l66.889.38c8.036.062,14.52,8.156,14.5,18.106l-.71,207.62c-.042,9.964-6.591,18.006-14.639,17.975Z" transform="translate(-54.489 -17.556)"/>
      <path id="Path_24" data-name="Path 24" d="M135.149,21.8l-12.968-.075c-1.778.041-3.193,1.867-3.165,4.083v2.935a4.583,4.583,0,0,1-.908,2.854,2.955,2.955,0,0,1-2.262,1.216l-25.282-.144c-1.777-.065-3.177-1.906-3.135-4.12V25.61c.031-2.2-1.361-4.021-3.125-4.089H79.744L68.4,21.414c-5.634-.035-10.225,5.628-10.256,12.65l-.689,203.992c-.025,7.022,4.521,12.741,10.155,12.775l66.758.383c5.636.031,10.226-5.638,10.251-12.663L145.3,34.566C145.329,27.545,140.783,21.828,135.149,21.8Z" transform="translate(-53.008 -14.933)" fill="#fafafa"/>
      <path id="Path_25" data-name="Path 25" d="M57.857,41.281H68.8L78.56,52.22,68.41,63.587,57.973,51.893Z" transform="translate(-52.805 3.254)" fill="#ebebeb"/>
      <path id="Path_26" data-name="Path 26" d="M74.974,47.418l-5.485-6.137H81.828Z" transform="translate(-46.989 2.902)" fill="#ebebeb"/>
      <path id="Path_27" data-name="Path 27" d="M76.343,52.275l9.607-10.759h33.565s5.138,25.7-15.1,42.2Z" transform="translate(-43.562 3.986)" fill="#ebebeb"/>
      <path id="Path_28" data-name="Path 28" d="M77.027,49.96,66.751,61.474,95.188,93.321l10.276-11.9Z" transform="translate(-48.358 11.625)" fill="#ebebeb"/>
      <path id="Path_29" data-name="Path 29" d="M57.774,66.59l6.441-7.484L57.9,52.033Z" transform="translate(-52.847 12.429)" fill="#ebebeb"/>
      <path id="Path_30" data-name="Path 30" d="M67.935,58.871,58.042,69.95v15.4l20.426,23.405L95.774,90.718Z" transform="translate(-52.713 19.997)" fill="#ebebeb"/>
      <path id="Path_31" data-name="Path 31" d="M97.626,86.945s21.2-17.4,14.342-45.429h13.179l-.161,79.1Z" transform="translate(-32.921 5.354)" fill="#ebebeb"/>
      <path id="Path_32" data-name="Path 32" d="M98.384,71.277,88.138,83.258l31.421,35.195,9.612-11.407Z" transform="translate(-37.665 31.081)" fill="#ebebeb"/>
      <path id="Path_33" data-name="Path 33" d="M90.653,80.362,74.544,98.272,106.761,134.1l16.078-17.409Z" transform="translate(-44.462 39.863)" fill="#ebebeb"/>
      <path id="Path_34" data-name="Path 34" d="M79.654,145.349l24.628-28.584,23.425,26.741Z" transform="translate(-41.907 73.197)" fill="#ebebeb"/>
      <path id="Path_35" data-name="Path 35" d="M98.632,126.086,124.3,97.626c0,1.262-.221,59.011-.221,59.011Z" transform="translate(-32.418 60.184)" fill="#ebebeb"/>
      <path id="Path_36" data-name="Path 36" d="M93.144,105.053l14.548,16.293L78.968,154.54,65.7,136.715Z" transform="translate(-48.885 65.234)" fill="#ebebeb"/>
      <path id="Path_37" data-name="Path 37" d="M57.79,157.439c1.374-.152,36.554-37.049,36.554-37.049L57.79,77.97Z" transform="translate(-52.839 40.254)" fill="#ebebeb"/>
      <path id="Path_38" data-name="Path 38" d="M57.451,133.685l8.469-8.408,11.73,15.515h-20.2v-5.934" transform="translate(-53.008 78.983)" fill="#ebebeb"/>
      <path id="Path_39" data-name="Path 39" d="M65.587,36.7a21.968,21.968,0,0,1-2.516-2.446h0v-.214h0L63.106,34l.06-.062.126-.13.242-.254.458-.473.79-.789a3.952,3.952,0,0,1,.805-.7,3.846,3.846,0,0,1-.644.823l-.755.834-.448.485-.242.259-.121.13-.065.062-.03.034h0V34h0a23,23,0,0,1,2.3,2.694Z" transform="translate(-50.198 -8.013)" fill="#263238"/>
      <path id="Path_40" data-name="Path 40" d="M111.494,32.319a.62.62,0,0,1-.336.572.506.506,0,0,1-.6-.132.669.669,0,0,1-.118-.672.551.551,0,0,1,.511-.377.579.579,0,0,1,.543.609Z" transform="translate(-26.535 -7.933)" fill="#263238"/>
      <path id="Path_41" data-name="Path 41" d="M111.337,33.14a.667.667,0,0,1,0,.869.508.508,0,0,1-.776,0,.668.668,0,0,1,0-.869.512.512,0,0,1,.775,0Z" transform="translate(-26.533 -7.081)" fill="#263238"/>
      <path id="Path_42" data-name="Path 42" d="M111.494,34.851a.546.546,0,1,1-1.092,0,.64.64,0,0,1,.257-.581.5.5,0,0,1,.579,0,.64.64,0,0,1,.257.581Z" transform="translate(-26.534 -6.255)" fill="#263238"/>
      <rect id="Rectangle_2" data-name="Rectangle 2" width="23.541" height="2.198" transform="translate(37.838 26.882)" fill="#263238"/>
      <path id="Path_43" data-name="Path 43" d="M102.379,62.466c0-10.268-9.632-16.772-19.455-11.626a11.824,11.824,0,0,0-5.173,5.551c-2.471,5.36-1.379,11.48.861,16.563l7.649,21.7a3.181,3.181,0,0,0,6.139,0l7.493-21.816C102.49,66.192,102.379,62.466,102.379,62.466ZM93.17,71.427c-6.6,4.3-13.3-3.646-9.677-11.491a5.969,5.969,0,0,1,2.1-2.491c6.607-4.3,13.3,3.646,9.677,11.491A5.919,5.919,0,0,1,93.17,71.427Z" transform="translate(-43.563 10.981)" fill="#00c569"/>
    </g>
    <g id="freepik--Car--inject-4" transform="translate(38.519 124)">
      <rect id="Rectangle_3" data-name="Rectangle 3" width="279.199" height="45.88" transform="translate(17.496 61.578)" fill="#0d0c0c"/>
      <g id="Group_1" data-name="Group 1" transform="translate(17.496 61.578)" opacity="0.5">
        <path id="Path_7781" data-name="Path 7781" d="M0,0H279.2V45.88H0Z"/>
      </g>
      <path id="Path_143" data-name="Path 143" d="M27.274.1c14.877-.119,26.84,13.276,26.721,29.92S41.719,60.256,26.842,60.375,0,47.1.121,30.455,12.4.222,27.274.1Z" transform="translate(25.988 78.792) rotate(-3.85)"/>
      <path id="Path_44" data-name="Path 44" d="M48.082,130.526v.079c-.215,16.652,11.664,30.347,26.533,30.588s27.1-13.062,27.313-29.714c0-.028,0-.056,0-.079Z" transform="translate(-19.984 -23.891)" fill="#070707"/>
      <path id="Path_45" data-name="Path 45" d="M53.426,139.091c-.155,11.691,8.184,21.308,18.623,21.479s19.025-9.169,19.175-20.86-8.191-21.3-18.63-21.471S53.581,127.406,53.426,139.091Z" transform="translate(-17.311 -32.247)" fill="#fafafa"/>
      <path id="Path_46" data-name="Path 46" d="M72.593,118.235c-10.435-.169-19.016,9.166-19.168,20.852l37.8.614c.148-11.689-8.192-21.3-18.629-21.466Z" transform="translate(-17.311 -32.249)" fill="#e0e0e0"/>
      <path id="Path_47" data-name="Path 47" d="M58.351,135.863c-.094,7.122,4.986,12.98,11.345,13.083s11.589-5.587,11.68-12.708-4.991-12.977-11.35-13.078S58.442,128.744,58.351,135.863Z" transform="translate(-14.849 -28.901)"/>
      <path id="Path_144" data-name="Path 144" d="M27.224.088C42.1-.015,54.074,13.4,53.971,30.041S41.726,60.265,26.851,60.368,0,47.061.1,30.415,12.349.191,27.224.088Z" transform="translate(232.151 78.507) rotate(-3.32)"/>
      <path id="Path_48" data-name="Path 48" d="M185.328,130.526v.079c-.215,16.652,11.664,30.347,26.532,30.588s27.1-13.062,27.313-29.714V131.4Z" transform="translate(48.639 -23.891)"/>
      <path id="Path_49" data-name="Path 49" d="M190.673,139.091c-.155,11.691,8.184,21.308,18.623,21.479s19.025-9.169,19.175-20.86-8.191-21.3-18.63-21.471-19.013,9.168-19.168,20.852Z" transform="translate(51.312 -32.247)" fill="#fafafa"/>
      <path id="Path_50" data-name="Path 50" d="M209.84,118.235c-10.434-.169-19.016,9.166-19.168,20.852l37.8.614c.148-11.689-8.192-21.3-18.629-21.466Z" transform="translate(51.312 -32.249)" fill="#e0e0e0"/>
      <path id="Path_51" data-name="Path 51" d="M195.587,135.863c-.094,7.122,4.986,12.98,11.345,13.083s11.589-5.587,11.68-12.708-4.991-12.977-11.35-13.078-11.584,5.584-11.675,12.7Z" transform="translate(53.769 -28.901)"/>
      <path id="Path_52" data-name="Path 52" d="M119.651,102.815S80.007,106.089,65.3,109.78c-10.356,2.6-30.324,7.09-30.083,21.156l1.585,10.088a15.194,15.194,0,0,0-7.4,13.458c0,9.671-1.807,24.662,15.484,25.265,2.848.1,8.258,0,8.258,0S49.829,138.505,83.656,137.3c34.416-1.229,32.131,42.071,32.131,42.071H259.422s-5.9-42.183,31.15-42.268,31.411,42.544,31.411,42.544,13.627,1.319,19.968-11.508,4.7-21.979,4.7-21.979l-.211-8.11a5,5,0,0,0-4.529-5.072h0s2.476-20.413-1.323-23.946-24.618-24.853-24.618-24.853l1.006-.693a2.735,2.735,0,0,0,1.071-2.522,2.568,2.568,0,0,0-1.574-2.166c-7.906-3.043-23.536-9.068-27.209-10.5a6.007,6.007,0,0,0-1.706-.406c-2.194-.186-8.4-.626-19.8-.761-13.884-.169-69.007,0-69.007,0s-18.972,1.747-29.539,6.954C158.123,79.556,119.651,102.815,119.651,102.815Z" transform="translate(-29.349 -67.049)" fill="#00c569"/>
      <g id="Group_2" data-name="Group 2" transform="translate(4.064 86.108)" opacity="0.4">
        <path id="Path_53" data-name="Path 53" d="M38.1,118.506c-1.439-.327-3.643-.355-4.74.733a5.419,5.419,0,0,0-1.152,3.336,15.852,15.852,0,0,0,.1,5,6.125,6.125,0,0,0,2.516,3.984,3.218,3.218,0,0,0,4.142-.564,6.555,6.555,0,0,0,1.006-4.323,39.163,39.163,0,0,0-.237-6.154,3.144,3.144,0,0,0-.5-1.245,1.494,1.494,0,0,0-1.147-.772" transform="translate(-32.059 -118.307)"/>
      </g>
      <path id="Path_54" data-name="Path 54" d="M34.855,115.68c4.207,0,8.288-.259,12.49-.564a1.866,1.866,0,0,0,1.278-.434,2.485,2.485,0,0,0,.438-1.691c0-2.525-.091-5.4-1.8-7.045a6.314,6.314,0,0,0-3.855-1.46,22.307,22.307,0,0,0-10.135,1.127Z" transform="translate(-27.389 -41.704)" fill="#fafafa"/>
      <path id="Path_55" data-name="Path 55" d="M119.468,154.152s0-.135-.03-.406-.04-.671-.07-1.184c-.05-1.048-.126-2.576-.221-4.548s-.216-4.39-.468-7.186a63.008,63.008,0,0,0-1.485-9.372,45.532,45.532,0,0,0-4.051-10.567,32.291,32.291,0,0,0-7.835-9.784c-6.788-5.41-15.962-8.454-25.559-8.6a38.383,38.383,0,0,0-25.4,8.95,39.919,39.919,0,0,0-8.238,9.417,46.326,46.326,0,0,0-4.821,10.144,45.172,45.172,0,0,0-2.038,9.226,43.278,43.278,0,0,0-.247,7.174,40.005,40.005,0,0,0,.5,4.509c.081.5.146.89.186,1.161s.055.4.055.4-.03-.13-.081-.389l-.216-1.127a36.617,36.617,0,0,1-.543-4.509,42.513,42.513,0,0,1,.2-7.2,45.205,45.205,0,0,1,2.013-9.276,46.569,46.569,0,0,1,4.821-10.229,39.942,39.942,0,0,1,8.273-9.491,38.566,38.566,0,0,1,25.524-9.017c9.672.141,18.861,3.212,25.7,8.673a32.532,32.532,0,0,1,7.875,9.874,45.445,45.445,0,0,1,4.026,10.646,61.942,61.942,0,0,1,1.454,9.412c.237,2.818.342,5.219.423,7.191s.136,3.505.176,4.554c0,.513.03.907.04,1.184A3.727,3.727,0,0,0,119.468,154.152Z" transform="translate(-24.602 -43.121)" fill="#fff"/>
      <path id="Path_56" data-name="Path 56" d="M94.018,176.569v-.338l-.03-1c-.025-.89-.06-2.192-.111-3.894-.086-3.421-.211-8.42-.372-14.782s-.347-14.089-.564-22.937c-.055-2.215-.106-4.509-.166-6.847a26.007,26.007,0,0,1,.141-3.579l.226-1.815.332-1.82a39.915,39.915,0,0,1,2.239-7.219,37.467,37.467,0,0,1,3.674-6.842h0l24.874-17.55,6.718-4.734a51.47,51.47,0,0,1,7.111-4.447,68.758,68.758,0,0,1,7.76-3.5c1.318-.518,2.672-.941,4.026-1.392a39.911,39.911,0,0,1,4.131-1.127,84.679,84.679,0,0,1,16.028-2.254,135.658,135.658,0,0,1,15.524.056h.146l-.035.163-6.683,33.482h0a39.132,39.132,0,0,0-3.019,7.2,21.812,21.812,0,0,0-1.006,7.439c.171,2.474.231,4.9.287,7.248s.081,4.627.121,6.842c.116,8.848.146,16.563.166,22.92s0,11.356,0,14.771v0c0-3.415-.045-8.414-.081-14.766s-.086-14.089-.221-22.926q-.06-3.314-.131-6.836c-.06-2.35-.121-4.762-.3-7.236a22.041,22.041,0,0,1,1.006-7.535,38.849,38.849,0,0,1,3.019-7.253v.039c2.048-10.308,4.287-21.557,6.658-33.487l.116.169a135.07,135.07,0,0,0-15.489-.045,83.75,83.75,0,0,0-15.987,2.254c-1.394.31-2.753.744-4.116,1.127s-2.7.874-4.026,1.386a68.672,68.672,0,0,0-7.76,3.505,51.161,51.161,0,0,0-7.075,4.418l-6.723,4.734-24.874,17.51v-.028a36.933,36.933,0,0,0-3.663,6.8,39.264,39.264,0,0,0-2.234,7.169c-1.132,4.83-.564,9.581-.554,14l.5,22.937c.136,6.357.242,11.362.312,14.777.035,1.691.055,3.009.075,3.9v1C94.018,176.456,94.018,176.569,94.018,176.569Z" transform="translate(2.358 -64.839)" fill="#263238"/>
      <path id="Path_57" data-name="Path 57" d="M154.507,71.389h.237l.689-.028,2.672-.073,9.908-.214,33.4-.642h.065l.04.056,4.68,6.419c4.74,6.521,9.259,12.72,13.366,18.355l1.51,2.085a12.675,12.675,0,0,1,1.253,2.254,13.005,13.005,0,0,1,.186,9.513l-1.51,3.945-4.62,11.97-1.268,3.246-.337.845c-.075.186-.121.282-.121.282s.03-.1.1-.293.181-.49.312-.857c.287-.755.694-1.86,1.223-3.269l4.529-12c.866-2.547,2.39-5.23,2.285-8.5a12.656,12.656,0,0,0-1.006-4.8,12.269,12.269,0,0,0-1.228-2.192l-1.51-2.085L205.982,77.07l-4.675-6.419.1.056L168,71.271l-9.908.13h-3.356Z" transform="translate(33.23 -64.749)" fill="#263238"/>
      <path id="Path_58" data-name="Path 58" d="M147.925,103.3a1.747,1.747,0,0,0,.4-.068,2.635,2.635,0,0,0,1.057-.473,2.973,2.973,0,0,0,1.077-1.567,3.762,3.762,0,0,0,.141-1.24,3.384,3.384,0,0,0-.312-1.341,2.653,2.653,0,0,0-2.32-1.584H136.8a2.47,2.47,0,0,0-1.771.778,3.092,3.092,0,0,0-.845,1.843,3.733,3.733,0,0,0,.322,1.989,2.8,2.8,0,0,0,1.288,1.279,3.684,3.684,0,0,0,1.676.231h4.6l4.282.045,1.162.028a1.933,1.933,0,0,1,.408.034,3.315,3.315,0,0,1-.408.028h-1.162l-4.282.045H136.6a2.545,2.545,0,0,1-.9-.231,3.025,3.025,0,0,1-1.414-1.392,3.924,3.924,0,0,1-.357-2.158,3.036,3.036,0,0,1,2.868-2.88H147.97a2.841,2.841,0,0,1,2.476,1.73,3.594,3.594,0,0,1,.317,1.431,3.977,3.977,0,0,1-.166,1.3,3.085,3.085,0,0,1-1.162,1.612,2.408,2.408,0,0,1-1.1.434,1.642,1.642,0,0,1-.408.13Z" transform="translate(22.928 -46.91)" fill="#263238"/>
      <path id="Path_59" data-name="Path 59" d="M197.577,103.3a1.746,1.746,0,0,0,.4-.068,2.635,2.635,0,0,0,1.057-.473,2.973,2.973,0,0,0,1.077-1.567,3.762,3.762,0,0,0,.141-1.24,3.384,3.384,0,0,0-.312-1.341,2.653,2.653,0,0,0-2.32-1.584H186.45a2.47,2.47,0,0,0-1.771.778,3.092,3.092,0,0,0-.845,1.843,3.734,3.734,0,0,0,.322,1.989,2.8,2.8,0,0,0,1.288,1.279,3.684,3.684,0,0,0,1.676.231h4.6l4.282.045,1.162.028a1.934,1.934,0,0,1,.408.034,3.316,3.316,0,0,1-.408.028h-1.162l-4.282.045h-5.475a2.545,2.545,0,0,1-.9-.231,3.025,3.025,0,0,1-1.414-1.392,3.924,3.924,0,0,1-.357-2.158,3.036,3.036,0,0,1,2.868-2.88h11.172A2.841,2.841,0,0,1,200.1,98.4a3.594,3.594,0,0,1,.317,1.431,3.976,3.976,0,0,1-.166,1.3,3.085,3.085,0,0,1-1.162,1.612,2.408,2.408,0,0,1-1.1.434A1.641,1.641,0,0,1,197.577,103.3Z" transform="translate(47.754 -46.91)" fill="#263238"/>
      <path id="Path_60" data-name="Path 60" d="M243.208,92.52h-14.9a5.454,5.454,0,0,0-4.866,3.286h0a6.833,6.833,0,0,0-.161,5.348l5.837,14.861,14.916-.163S247.214,97.011,243.208,92.52Z" transform="translate(67.385 -49.731)" fill="#fafafa"/>
      <path id="Path_61" data-name="Path 61" d="M98.5,105.717l76.857-1.589,50.021-1.026,16.5-10.668a2.877,2.877,0,0,0,1.223-1.919,3.137,3.137,0,0,0-.473-2.3L232.351,73.109a5.526,5.526,0,0,0-4.5-2.525L171.9,70.077s-21.065-1.375-37.666,9.017C116.78,90.066,98.5,105.717,98.5,105.717Z" transform="translate(5.225 -65.031)"/>
      <path id="Path_62" data-name="Path 62" d="M138.328,70.981s3.855,1.967,1.349,3.787-41.446,29.306-41.446,29.306l-8.952-4.537C105.135,89.658,121.148,80.049,138.328,70.981Z" transform="translate(0.616 -64.375)"/>
      <path id="Path_63" data-name="Path 63" d="M127.249,91.1l-.242.068-.71.175-2.733.631c-2.375.53-5.817,1.274-10.064,2.1-8.555,1.646-20.391,3.562-33.56,4.835-3.3.321-6.542.564-9.622.812s-6.109.445-8.957.733a70.4,70.4,0,0,0-14.951,2.869,39.742,39.742,0,0,0-9.446,4.385c-1.072.631-1.837,1.251-2.375,1.623l-.614.434-.216.141a2.472,2.472,0,0,1,.2-.163l.6-.462c.533-.389,1.288-1.026,2.355-1.691a38.863,38.863,0,0,1,9.42-4.509,68.794,68.794,0,0,1,14.981-2.936c2.853-.3,5.853-.518,8.962-.75s6.326-.5,9.617-.823c13.164-1.274,25.015-3.156,33.555-4.751,4.272-.795,7.714-1.5,10.095-2l2.743-.564L127,91.1Z" transform="translate(-27.144 -50.698)" fill="#263238"/>
      <path id="Path_64" data-name="Path 64" d="M248.007,114.1c0,.085-5.123.147-11.438.147s-11.443-.062-11.443-.147,5.123-.147,11.443-.147S248.007,114.021,248.007,114.1Z" transform="translate(68.539 -35.159)" fill="#263238"/>
      <path id="Path_65" data-name="Path 65" d="M220.957,122.816c0,.085-28.915.147-64.579.147s-64.584-.062-64.584-.147,28.91-.147,64.584-.147S220.957,122.737,220.957,122.816Z" transform="translate(1.874 -29.233)" fill="#263238"/>
      <path id="Path_66" data-name="Path 66" d="M49.031,114.389c0,.085-4.091.147-9.134.147s-9.134-.062-9.134-.147,4.091-.147,9.134-.147S49.031,114.31,49.031,114.389Z" transform="translate(-28.642 -34.963)" fill="#263238"/>
      <path id="Path_67" data-name="Path 67" d="M220.967,76.9s-3.432,4.3-2.083,7.456,15.293,14.213,15.293,14.213l10.12,2.125Z" transform="translate(65.261 -60.353)"/>
      <path id="Path_68" data-name="Path 68" d="M156.781,72.31l-2.275,27.525,40.721-1.3,16.41-10.685L201.015,72.31Z" transform="translate(33.23 -63.471)"/>
      <path id="Path_69" data-name="Path 69" d="M104.926,101.276s24.567-19.871,34.26-23.822c9.355-3.81,14.231-4.768,23.017-5.072,8.4-.271,13.517,0,13.517,0l-6.492,27.981Z" transform="translate(8.439 -63.504)"/>
      <path id="Path_70" data-name="Path 70" d="M102.53,93.337h0a4.954,4.954,0,0,1,2.194-4.2l5.646-3.55a9.844,9.844,0,0,1,5.269-1.544h0a9.8,9.8,0,0,1,3.346.6,6.823,6.823,0,0,1,4.116,6.3h0a7.447,7.447,0,0,1-1.734,5.094,5.912,5.912,0,0,1-4.48,2.131H106.823a4.584,4.584,0,0,1-4.292-4.819Z" transform="translate(7.242 -55.497)" fill="#fff"/>
      <path id="Path_71" data-name="Path 71" d="M102.535,93.4a4.158,4.158,0,0,0,.065.609,5.182,5.182,0,0,0,.5,1.651,4.718,4.718,0,0,0,1.731,1.911,3.937,3.937,0,0,0,1.449.507,14.493,14.493,0,0,0,1.736.039l8.61-.034a5.835,5.835,0,0,0,2.4-.44,6.519,6.519,0,0,0,3.563-3.945,7.792,7.792,0,0,0,.377-2.981,7.047,7.047,0,0,0-2.541-5.044,6.147,6.147,0,0,0-2.33-1.127,9.636,9.636,0,0,0-6.854.738c-.649.327-1.243.738-1.832,1.093l-1.681,1.048-2.894,1.792a4.616,4.616,0,0,0-1.731,1.911,5.353,5.353,0,0,0-.5,1.651c-.05.394-.045.609-.06.609a3.4,3.4,0,0,1,0-.62A5.075,5.075,0,0,1,103,91.077a4.658,4.658,0,0,1,1.746-2l2.873-1.832,1.671-1.065c.584-.361,1.178-.778,1.842-1.127a9.763,9.763,0,0,1,7-.789,6.3,6.3,0,0,1,2.421,1.127,7.329,7.329,0,0,1,2.657,5.258,8.055,8.055,0,0,1-.393,3.111,6.774,6.774,0,0,1-3.724,4.114,6.11,6.11,0,0,1-2.481.445L108,98.3a14.838,14.838,0,0,1-1.756-.062,4.042,4.042,0,0,1-1.51-.564,4.775,4.775,0,0,1-1.751-2,5.165,5.165,0,0,1-.458-1.691,4.126,4.126,0,0,1,.005-.586Z" transform="translate(7.237 -55.559)" fill="#263238"/>
      <path id="Path_72" data-name="Path 72" d="M254.724,153.481v-.389c0-.259.04-.648.07-1.127s.081-1.127.111-1.86.05-1.589.075-2.542,0-2.023,0-3.184a36.833,36.833,0,0,0-.216-3.782,54.1,54.1,0,0,0-1.454-9.062,44.291,44.291,0,0,0-1.605-5.072,34.518,34.518,0,0,0-2.426-5.117,33.445,33.445,0,0,0-7.87-9.186,35.8,35.8,0,0,0-11.282-6.233,42.586,42.586,0,0,0-13.416-2,39.833,39.833,0,0,0-13.386,2.181,35.543,35.543,0,0,0-5.958,2.756,34.072,34.072,0,0,0-5.173,3.787,46.032,46.032,0,0,0-7.971,9.152,36.358,36.358,0,0,0-2.647,4.982,51.812,51.812,0,0,0-1.832,4.954,65.335,65.335,0,0,0-2.909,15.78c-.081,1.91-.07,3.381-.025,4.407.025.5.045.874.055,1.127a3.822,3.822,0,0,1,0,.389,2.855,2.855,0,0,0-.04-.389c-.04-.259-.05-.648-.086-1.127q-.1-2.2,0-4.413a64.255,64.255,0,0,1,2.833-15.876q.793-2.543,1.822-4.982a37.91,37.91,0,0,1,2.657-5.027,46.506,46.506,0,0,1,8-9.22,34.542,34.542,0,0,1,5.2-3.821,35.776,35.776,0,0,1,6-2.778,39.8,39.8,0,0,1,13.466-2.2,42.646,42.646,0,0,1,13.491,2.018,35.61,35.61,0,0,1,15.8,10.663,30.213,30.213,0,0,1,3.457,4.909,34.8,34.8,0,0,1,2.431,5.162,43.385,43.385,0,0,1,1.6,5.072,53.446,53.446,0,0,1,1.424,9.107c.136,1.353.136,2.621.191,3.787s0,2.254,0,3.19-.075,1.809-.106,2.547-.1,1.353-.136,1.86-.07.874-.091,1.127S254.724,153.481,254.724,153.481Z" transform="translate(44.321 -42.196)" fill="#fff"/>
      <path id="Path_73" data-name="Path 73" d="M162.092,91.268h-.458l-1.313.034-4.826.1c-4.076.085-9.7.254-15.922.445s-11.851.321-15.927.355h-6.482a.288.288,0,0,1-.121,0,.337.337,0,0,1,.121,0h.337l1.313-.034,4.826-.1c4.076-.085,9.707-.254,15.927-.44s11.851-.327,15.927-.361h6.6Z" transform="translate(14.498 -50.582)" fill="#fff"/>
      <path id="Path_74" data-name="Path 74" d="M145.566,96.377a32.542,32.542,0,0,1-4.408.147,32.543,32.543,0,0,1-4.408-.147,33.684,33.684,0,0,1,4.408-.147A33.684,33.684,0,0,1,145.566,96.377Z" transform="translate(24.351 -47.22)" fill="#fff"/>
      <path id="Path_75" data-name="Path 75" d="M151.89,78.359c.025.073-5.445,2.626-12.223,5.7s-12.294,5.506-12.324,5.427,5.445-2.626,12.223-5.7S151.86,78.286,151.89,78.359Z" transform="translate(19.648 -59.36)" fill="#fff"/>
      <path id="Path_76" data-name="Path 76" d="M144.107,79.51c.03.079-5.183,2.649-11.64,5.743s-11.71,5.546-11.74,5.472,5.183-2.643,11.64-5.743S144.077,79.426,144.107,79.51Z" transform="translate(16.34 -58.577)" fill="#fff"/>
      <path id="Path_77" data-name="Path 77" d="M191.383,77.725c.03.073-5.445,2.626-12.223,5.7s-12.294,5.5-12.324,5.427,5.445-2.626,12.228-5.7S191.343,77.647,191.383,77.725Z" transform="translate(39.394 -59.791)" fill="#fff"/>
      <path id="Path_78" data-name="Path 78" d="M183.586,78.869c.03.079-5.183,2.649-11.635,5.743s-11.715,5.546-11.745,5.472,5.183-2.643,11.64-5.743S183.586,78.818,183.586,78.869Z" transform="translate(36.08 -59.013)" fill="#fff"/>
      <path id="Path_79" data-name="Path 79" d="M200.122,91.273c0,.079-10.885.22-24.311.31s-24.311.1-24.311,0,10.88-.22,24.311-.3S200.122,91.211,200.122,91.273Z" transform="translate(31.727 -50.615)" fill="#fff"/>
      <path id="Path_80" data-name="Path 80" d="M196.5,96.071c0,.079-3.05.175-6.819.214s-6.819,0-6.819-.073,3.05-.18,6.819-.22S196.5,95.986,196.5,96.071Z" transform="translate(47.406 -47.382)" fill="#fff"/>
      <path id="Path_81" data-name="Path 81" d="M62.043,93.549a1.1,1.1,0,0,1-.3.068l-.85.124c-.372.045-.825.107-1.349.209s-1.122.175-1.776.321c-1.313.259-2.868.642-4.569,1.127a52.526,52.526,0,0,0-5.44,2.018,55.339,55.339,0,0,0-5.218,2.666,41.84,41.84,0,0,0-4.026,2.637c-.569.389-1.062.783-1.51,1.127s-.815.626-1.117.874l-.7.564a1.546,1.546,0,0,1-.257.18,1.531,1.531,0,0,1,.221-.225l.674-.6c.292-.259.654-.564,1.092-.919a15.686,15.686,0,0,1,1.51-1.127,48.053,48.053,0,0,1,4.026-2.7,46.274,46.274,0,0,1,10.709-4.706,44.134,44.134,0,0,1,4.6-1.093c.659-.135,1.258-.2,1.786-.282s1.006-.13,1.354-.158l.861-.073a1.761,1.761,0,0,1,.277-.028Z" transform="translate(-26.557 -49.031)" fill="#fff"/>
      <path id="Path_82" data-name="Path 82" d="M117.929,86.254a2.891,2.891,0,0,0-.5-.524,3.163,3.163,0,0,0-1.661-.75,6.444,6.444,0,0,0-2.687.321,19.945,19.945,0,0,0-8.318,4.8c-1.2,1.127-1.832,1.956-1.867,1.916a3.591,3.591,0,0,1,.423-.6,18.957,18.957,0,0,1,1.318-1.477,19.178,19.178,0,0,1,5.173-3.7,17.318,17.318,0,0,1,3.216-1.2,6.4,6.4,0,0,1,2.768-.27,3.087,3.087,0,0,1,1.7.874,2.377,2.377,0,0,1,.337.428C117.909,86.187,117.939,86.249,117.929,86.254Z" transform="translate(7.423 -55.031)" fill="#fff"/>
      <path id="Path_83" data-name="Path 83" d="M238.716,81.173a7.227,7.227,0,0,1-2.144.248,12.208,12.208,0,0,1-2.516-.349,21.209,21.209,0,0,1-3.206-1.127c-1.162-.49-2.4-1.127-3.739-1.753l-2.088-.941c-.72-.321-1.479-.6-2.244-.913a80.4,80.4,0,0,0-10.256-3.128,106.022,106.022,0,0,0-19.163-2.66c-1.238-.073-2.355-.073-3.341-.1H187.5l-1.59.039h-.559a.338.338,0,0,1,.141,0l.413-.034,1.6-.1,2.516-.051c1.006,0,2.1,0,3.341.068a99.712,99.712,0,0,1,19.213,2.592A77.067,77.067,0,0,1,222.845,76.1c.765.316,1.51.6,2.249.924l2.088.964c1.339.648,2.571,1.279,3.724,1.781a20.392,20.392,0,0,0,3.165,1.127,11.989,11.989,0,0,0,2.486.395,10.239,10.239,0,0,0,1.585-.062l.408-.056Z" transform="translate(48.654 -64.833)" fill="#263238"/>
    </g>
    <g id="freepik--Character--inject-4" transform="translate(26.608 89.03)">
      <path id="Path_84" data-name="Path 84" d="M71.711,89.115c-2.013-12.331-3.367-14.225-4.5-18.468s-2.944-7-5.193-7.975c-1.51-.654-9.093-3.714-11.73-2.7a31.859,31.859,0,0,0-7.312,4.114,10.873,10.873,0,0,0-3.814,5.467l-4.026,12.72,7.085,7.89L45.77,81.71l3.855,10.144-.569,10.229,22.107,6.661C73.155,105.138,72.853,96.109,71.711,89.115Z" transform="translate(-14.547 -37.028)" fill="#fff"/>
      <g id="Group_3" data-name="Group 3" transform="translate(36.515 38.635)" opacity="0.2">
        <path id="Path_85" data-name="Path 85" d="M60.659,69.23c-.976,6.419-1.132,7.326-2.109,13.723-.337,2.2-1.318,5.636-2.717,7.236a7.556,7.556,0,0,1-3.5,2.694,7.524,7.524,0,0,1-4.635-.225c-1.258-.62-2.335-3.381-1.817-4.8,1.877.451,2.456,1.127,4.071,0a15.173,15.173,0,0,0,4.177-4.886c3.226-6.988,4.116-7.236,6.542-13.745" transform="translate(-45.752 -69.23)"/>
      </g>
      <path id="Path_86" data-name="Path 86" d="M47.187,81.383a15.945,15.945,0,0,1-.976-1.691l-2.275-4.187L41.6,71.385a15.545,15.545,0,0,1-.941-1.736,2.109,2.109,0,0,1,.317.417c.191.276.458.688.775,1.2.644,1.026,1.51,2.463,2.405,4.08s1.676,3.117,2.214,4.216c.272.564.5.992.624,1.307A1.909,1.909,0,0,1,47.187,81.383Z" transform="translate(-11.782 -30.31)" fill="#263238"/>
      <path id="Path_87" data-name="Path 87" d="M59.728,84.591a2.362,2.362,0,0,1-.5.22A5.231,5.231,0,0,1,58.6,85a6.6,6.6,0,0,1-.845.2,11.984,11.984,0,0,1-2.234.231,13.184,13.184,0,0,1-5.395-1.1,13.55,13.55,0,0,1-2.013-1.093c-.282-.175-.5-.366-.725-.518a5.927,5.927,0,0,1-.528-.434,2.431,2.431,0,0,1-.418-.411c.03-.045.654.5,1.761,1.184a15.141,15.141,0,0,0,2.013,1.02,13.968,13.968,0,0,0,5.309,1.088A14.771,14.771,0,0,0,57.73,85C58.958,84.8,59.713,84.535,59.728,84.591Z" transform="translate(-8.894 -22.004)" fill="#263238"/>
      <path id="Path_88" data-name="Path 88" d="M56.805,75.732c-.04.22-2.415,5.517-2.415,5.517L43.178,74.633l-1.142-5.41A3.02,3.02,0,0,0,38.4,66.732L35.1,68.248a.969.969,0,0,0-.543.716c-.045.271,0,.564.438.5.82-.073,2.516-.276,2.516-.276l-.78,3.083a3.629,3.629,0,0,0,.221,2.418l.5,1.065,1.092,1.978h-.025s10.9,12.539,17.019,13.357c3.679.49,7.845-11.057,7.845-11.057Z" transform="translate(-14.843 -32.357)" fill="#ffd7c8"/>
      <path id="Path_89" data-name="Path 89" d="M36.464,68.509a1.246,1.246,0,0,1,.272-.271,1.353,1.353,0,0,1,.85-.293.89.89,0,0,1,.75.564c.106.254.035.423,0,.411s0-.158-.121-.349a.856.856,0,0,0-.659-.423,1.565,1.565,0,0,0-.78.225C36.62,68.458,36.479,68.532,36.464,68.509Z" transform="translate(-13.881 -31.469)" fill="#aa6550"/>
      <path id="Path_90" data-name="Path 90" d="M37.95,69.808s-.075-.1-.181-.254a1.166,1.166,0,0,0-1.162-.513c-.171,0-.277.068-.287.045s.081-.107.262-.175a1.077,1.077,0,0,1,1.283.564A.575.575,0,0,1,37.95,69.808Z" transform="translate(-13.953 -30.846)" fill="#aa6550"/>
      <path id="Path_91" data-name="Path 91" d="M51.939,62.1,48.92,78.214l8.052,5.416,3.09-9.9S58.763,61.7,51.939,62.1Z" transform="translate(-7.653 -35.449)" fill="#fff"/>
      <path id="Path_92" data-name="Path 92" d="M61.387,62.266a1.292,1.292,0,0,1-.206.147c-.141.085-.342.209-.609.361-.533.3-1.318.733-2.3,1.223a31.351,31.351,0,0,1-8,2.818,17.937,17.937,0,0,1-8.364-.316,13.256,13.256,0,0,1-2.385-.964,4.675,4.675,0,0,1-.619-.349,1.41,1.41,0,0,1-.206-.141,7.937,7.937,0,0,1,.866.389,16.2,16.2,0,0,0,2.405.868,18.582,18.582,0,0,0,8.273.225A33.819,33.819,0,0,0,58.216,63.8c1.006-.462,1.776-.862,2.325-1.127a6.586,6.586,0,0,1,.845-.411Z" transform="translate(-12.762 -35.331)" fill="#ebebeb"/>
      <path id="Path_93" data-name="Path 93" d="M63.943,63.326a1.2,1.2,0,0,1-.226.18l-.664.479a11.924,11.924,0,0,1-1.087.71c-.433.254-.916.564-1.485.845l-.876.451c-.307.158-.639.287-.976.44-.669.31-1.414.564-2.189.845a27.285,27.285,0,0,1-10.492,1.392c-.815-.073-1.59-.124-2.3-.254-.362-.062-.71-.1-1.042-.169l-.951-.214c-.6-.118-1.142-.3-1.615-.434a11.16,11.16,0,0,1-1.2-.4l-.75-.293a1.007,1.007,0,0,1-.257-.118.864.864,0,0,1,.272.062l.765.237a12.324,12.324,0,0,0,1.208.355c.478.113,1.006.287,1.62.389l.946.192c.327.068.674.1,1.006.152.715.118,1.51.163,2.29.225a28.1,28.1,0,0,0,10.417-1.381c.77-.271,1.51-.513,2.179-.817.332-.147.664-.271.971-.417l.881-.434c.569-.259,1.052-.564,1.51-.8a11.7,11.7,0,0,0,1.1-.659l.694-.428a1.015,1.015,0,0,1,.257-.135Z" transform="translate(-13.2 -34.61)" fill="#ebebeb"/>
      <path id="Path_94" data-name="Path 94" d="M57.121,83.759a5.049,5.049,0,0,1-.654-.372L54.7,82.26l-6.039-3.906-.075-.051v-.1c.216-1.2.448-2.5.689-3.827.362-2.006.715-3.911,1.006-5.636.166-.868.3-1.691.453-2.474a9.676,9.676,0,0,1,.644-2.091,3.977,3.977,0,0,1,2.083-2.136,2.086,2.086,0,0,1,.77-.141.67.67,0,0,1,.267.034,3.023,3.023,0,0,0-1.006.214,3.987,3.987,0,0,0-1.953,2.119,9.873,9.873,0,0,0-.6,2.057c-.136.772-.277,1.6-.428,2.463-.312,1.747-.654,3.652-1.006,5.636-.242,1.336-.478,2.626-.694,3.827l-.06-.147,6,4,1.736,1.184A4.561,4.561,0,0,1,57.121,83.759Z" transform="translate(-7.822 -35.578)" fill="#263238"/>
      <path id="Path_95" data-name="Path 95" d="M56.685,68.734a6.563,6.563,0,0,1-.04,1.5,25,25,0,0,1-.574,3.567A25.457,25.457,0,0,1,55,77.232a6.093,6.093,0,0,1-.629,1.33,11.6,11.6,0,0,1,.458-1.409,36.785,36.785,0,0,0,1.63-6.943A13.091,13.091,0,0,1,56.685,68.734Z" transform="translate(-4.925 -30.933)" fill="#263238"/>
      <path id="Path_96" data-name="Path 96" d="M29.506,122.086l-.091,8.6s-7.84,2.79-7.991,4.379l14.885.789.634-13.4Z" transform="translate(-21.401 5.34)"/>
      <path id="Path_97" data-name="Path 97" d="M30.105,126.928a.7.7,0,0,1,.387.8.578.578,0,0,1-.7.44.747.747,0,0,1-.408-.851.587.587,0,0,1,.78-.361" transform="translate(-17.431 8.619)" fill="#e0e0e0"/>
      <path id="Path_98" data-name="Path 98" d="M36.317,130.932v-1.353l-14.282-.254s-.679.287-.624.817Z" transform="translate(-21.408 10.262)" fill="#e0e0e0"/>
      <path id="Path_99" data-name="Path 99" d="M26.594,127.174c0,.079.362.135.7.417s.5.631.594.6,0-.5-.448-.834S26.579,127.1,26.594,127.174Z" transform="translate(-18.816 8.755)" fill="#263238"/>
      <path id="Path_100" data-name="Path 100" d="M25.53,127.538c0,.079.292.237.5.592s.287.727.362.727.136-.456-.161-.9S25.535,127.465,25.53,127.538Z" transform="translate(-19.347 9.028)" fill="#263238"/>
      <path id="Path_101" data-name="Path 101" d="M25.058,129.319c.065,0,.186-.378,0-.834s-.5-.648-.533-.564.166.316.3.693S24.978,129.307,25.058,129.319Z" transform="translate(-19.852 9.294)" fill="#263238"/>
      <path id="Path_102" data-name="Path 102" d="M26.735,126.084c.03.079.367,0,.78.034s.72.22.76.152-.252-.378-.735-.434S26.705,126.022,26.735,126.084Z" transform="translate(-18.746 7.884)" fill="#263238"/>
      <g id="Group_4" data-name="Group 4" transform="translate(8.07 129.127)" opacity="0.3">
        <path id="Path_103" data-name="Path 103" d="M26.808,123.1l-.02,1.533,7.322.316.065-1.381Z" transform="translate(-26.788 -123.099)"/>
      </g>
      <path id="Path_104" data-name="Path 104" d="M26.768,125.45a1.238,1.238,0,0,0,.745.039,2.958,2.958,0,0,0,.79-.231,2.738,2.738,0,0,0,.438-.231.9.9,0,0,0,.237-.18.387.387,0,0,0,.05-.434.4.4,0,0,0-.312-.2.9.9,0,0,0-.282.028,2.45,2.45,0,0,0-.468.152,2.7,2.7,0,0,0-.71.468c-.362.344-.5.643-.468.659s.211-.22.574-.5a2.978,2.978,0,0,1,.684-.383,2.613,2.613,0,0,1,.433-.124c.161-.039.3-.034.332.045s0,.045,0,.1a.9.9,0,0,1-.171.135c-.136.085-.272.163-.4.231a3.969,3.969,0,0,1-.735.27A5.23,5.23,0,0,0,26.768,125.45Z" transform="translate(-18.728 6.783)" fill="#263238"/>
      <path id="Path_105" data-name="Path 105" d="M27.135,126.1a1.441,1.441,0,0,0,.226-.795,2.957,2.957,0,0,0-.06-.919,2.827,2.827,0,0,0-.171-.519.641.641,0,0,0-.458-.445.335.335,0,0,0-.317.214,1.1,1.1,0,0,0-.091.3,2.112,2.112,0,0,0,0,.564,2.061,2.061,0,0,0,.282.879c.272.451.574.564.579.535a3.333,3.333,0,0,1-.428-.637,2.087,2.087,0,0,1-.2-.795,1.989,1.989,0,0,1,.035-.485c.03-.175.1-.316.156-.293a.564.564,0,0,1,.247.287,2.833,2.833,0,0,1,.166.462,3.333,3.333,0,0,1,.111.84C27.17,125.789,27.08,126.088,27.135,126.1Z" transform="translate(-18.99 6.252)" fill="#263238"/>
      <path id="Path_106" data-name="Path 106" d="M59.656,89.628S36.4,78.7,29.2,78.239c-4.529-.293-7.931,2.953-7.317,8.183.307,2.621,6.733,33.251,6.733,33.251l9.793-5L33.7,93.483l19.123,10.4Z" transform="translate(-21.206 -24.483)"/>
      <path id="Path_107" data-name="Path 107" d="M27.79,84.117c-.075.073.694,1.183,1.51,2.654s1.359,2.739,1.449,2.7a8.7,8.7,0,0,0-1.157-2.9A7.915,7.915,0,0,0,27.79,84.117Z" transform="translate(-18.22 -20.476)" fill="#455a64"/>
      <path id="Path_108" data-name="Path 108" d="M26.52,84.843a26.385,26.385,0,0,0,2.516,2.068,27.068,27.068,0,0,0,2.516,2.057,9.816,9.816,0,0,0-2.33-2.373A10.179,10.179,0,0,0,26.52,84.843Z" transform="translate(-18.853 -19.986)" fill="#455a64"/>
      <path id="Path_109" data-name="Path 109" d="M75.9,91.583s-2.924,4.221-5.712,5.376C66.669,98.407,40.773,112.1,40.773,112.1s-4.7,39.106-4.328,37.472L25.6,149.275l1.178-36.018c.141-4.61,3.442-9.908,6.99-12.263L57.762,85.011Z" transform="translate(-19.312 -19.866)"/>
      <path id="Path_110" data-name="Path 110" d="M26.254,119.083a2.125,2.125,0,0,0,.045-.5c0-.361.04-.828.065-1.415q.092-2.6.433-5.179a19.15,19.15,0,0,1,2.355-7.123,13.052,13.052,0,0,1,2.788-3.224,33.223,33.223,0,0,1,3.679-2.609c5.218-3.348,9.722-6.763,13.054-9.1,1.661-1.183,3.019-2.125,3.945-2.767l1.077-.744a2.325,2.325,0,0,0,.367-.282,2.1,2.1,0,0,0-.4.214c-.257.152-.634.378-1.112.682-.961.6-2.33,1.516-4.026,2.666-3.367,2.288-7.9,5.664-13.084,9.017a33.106,33.106,0,0,0-3.714,2.643,13.241,13.241,0,0,0-2.848,3.325,19.258,19.258,0,0,0-2.32,7.3,45.367,45.367,0,0,0-.322,5.213c0,.564,0,1.054,0,1.42A2.9,2.9,0,0,0,26.254,119.083Z" transform="translate(-18.995 -19.098)" fill="#455a64"/>
      <path id="Path_111" data-name="Path 111" d="M53.467,94.55a9.167,9.167,0,0,0-.664-1A8.009,8.009,0,0,1,51.8,87.917a10.038,10.038,0,0,0,.262-1.212,2.853,2.853,0,0,0-.5,1.127,7.215,7.215,0,0,0-.111,3.077,6.741,6.741,0,0,0,1.167,2.784C53.07,94.342,53.447,94.584,53.467,94.55Z" transform="translate(-6.448 -18.714)" fill="#455a64"/>
      <path id="Path_112" data-name="Path 112" d="M28.261,148.707a.844.844,0,0,0,.03-.2c0-.158.04-.349.065-.592.055-.564.126-1.307.216-2.254.176-2.006.428-4.864.74-8.38.146-1.77.312-3.708.5-5.788s.367-4.306.5-6.65.357-4.8.74-7.326A32.714,32.714,0,0,1,33.072,110a25.691,25.691,0,0,1,3.935-6.464,37.417,37.417,0,0,1,4.911-4.847,98.36,98.36,0,0,1,9.415-6.577c2.753-1.77,4.947-3.28,6.4-4.418.735-.564,1.288-1.02,1.661-1.341l.418-.366q.141-.124.136-.135a.627.627,0,0,0-.156.1l-.438.338c-.382.3-.951.738-1.691,1.285-1.479,1.093-3.684,2.564-6.451,4.306A93.415,93.415,0,0,0,41.733,98.4a36.947,36.947,0,0,0-4.972,4.875,25.855,25.855,0,0,0-4,6.56,33.034,33.034,0,0,0-2.013,7.614c-.377,2.536-.569,5-.725,7.326s-.312,4.571-.5,6.65-.312,4.018-.448,5.794c-.267,3.522-.5,6.38-.629,8.392q-.1,1.454-.151,2.254c0,.242-.025.44-.035.592A.7.7,0,0,0,28.261,148.707Z" transform="translate(-17.987 -19.298)" fill="#455a64"/>
      <path id="Path_113" data-name="Path 113" d="M50.029,49.35a4.174,4.174,0,0,0-4.846-2.925,4.575,4.575,0,0,1-1.349.327,8.813,8.813,0,0,1-1.641-.485,2.479,2.479,0,0,0-2.778,2.018,3.064,3.064,0,0,0-2.763.614A2.619,2.619,0,0,0,36,51.819c.2.411.5.738.7,1.161a18.352,18.352,0,0,1,.367,2.254,2.758,2.758,0,0,0,2.345,1.882,7.2,7.2,0,0,0,3.019-.479" transform="translate(-14.206 -46.232)"/>
      <path id="Path_114" data-name="Path 114" d="M44.2,70.017c-.126-1.093-.206-1.86-.206-1.86s-3.246,0-4.529-4.509a55.736,55.736,0,0,1-1.344-9.13,5.332,5.332,0,0,1,1.046-3.692,4.248,4.248,0,0,1,3.105-1.707l8.615-.5.186,1.493,2.27,18.553a5.615,5.615,0,0,1-.9,3.825,4.523,4.523,0,0,1-3.058,1.98h0a4.254,4.254,0,0,1-3.417-1.02A5.323,5.323,0,0,1,44.2,70.017Z" transform="translate(-13.062 -44.609)" fill="#ffd7c8"/>
      <path id="Path_115" data-name="Path 115" d="M38.917,53.968a.553.553,0,0,0,.594.507.487.487,0,0,0,.356-.2.612.612,0,0,0,.112-.429.543.543,0,0,0-.594-.507.487.487,0,0,0-.356.2.611.611,0,0,0-.112.429Z" transform="translate(-12.656 -41.404)" fill="#263238"/>
      <path id="Path_116" data-name="Path 116" d="M38.773,53.55c.075.062.428-.338,1.006-.44s1.006.147,1.082.056S40.8,53,40.6,52.885a1.3,1.3,0,0,0-.881-.141,1.333,1.333,0,0,0-.78.445C38.773,53.37,38.733,53.522,38.773,53.55Z" transform="translate(-12.733 -41.82)" fill="#263238"/>
      <path id="Path_117" data-name="Path 117" d="M42.514,53.357a.547.547,0,0,0,.594.5.486.486,0,0,0,.357-.2.61.61,0,0,0,.116-.427.553.553,0,0,0-.594-.507.487.487,0,0,0-.359.2A.611.611,0,0,0,42.514,53.357Z" transform="translate(-10.858 -41.819)" fill="#263238"/>
      <path id="Path_118" data-name="Path 118" d="M42.51,53.026c.075.068.428-.338,1.006-.434s1.006.141,1.082.051-.06-.163-.262-.282a1.366,1.366,0,0,0-.881-.141,1.382,1.382,0,0,0-.78.445C42.51,52.845,42.475,52.992,42.51,53.026Z" transform="translate(-10.864 -42.175)" fill="#263238"/>
      <path id="Path_119" data-name="Path 119" d="M42.094,57.881a3.18,3.18,0,0,0-.951,0c-.146,0-.287,0-.327-.107a.923.923,0,0,1,0-.5c.081-.417.166-.857.257-1.313a24.942,24.942,0,0,0,.5-3.41,24.093,24.093,0,0,0-.75,3.381c-.081.462-.161.9-.231,1.324a1.022,1.022,0,0,0,0,.648.377.377,0,0,0,.272.2.9.9,0,0,0,.252,0A3.574,3.574,0,0,0,42.094,57.881Z" transform="translate(-11.842 -41.936)" fill="#263238"/>
      <path id="Path_120" data-name="Path 120" d="M42.029,61.315a10.108,10.108,0,0,0,5.284-2.632A5.429,5.429,0,0,1,42.236,62.4Z" transform="translate(-11.098 -37.767)" fill="#aa6550"/>
      <path id="Path_121" data-name="Path 121" d="M43.259,55.808c-.1,0,0,.7-.453,1.285s-1.127.626-1.122.721.166.113.448.068a1.47,1.47,0,0,0,.936-.564,1.6,1.6,0,0,0,.342-1.071C43.395,55.954,43.3,55.8,43.259,55.808Z" transform="translate(-11.271 -39.721)" fill="#263238"/>
      <path id="Path_122" data-name="Path 122" d="M42.172,51.508c.081.163.639,0,1.318-.051s1.248.079,1.313-.09-.086-.225-.327-.355a2.059,2.059,0,0,0-2.013.107C42.243,51.272,42.137,51.429,42.172,51.508Z" transform="translate(-11.03 -43.126)" fill="#263238"/>
      <path id="Path_123" data-name="Path 123" d="M38.74,52.441c.121.124.5-.1.961-.186s.886-.056.956-.225c.03-.079-.055-.214-.247-.316a1.226,1.226,0,0,0-.82-.1,1.3,1.3,0,0,0-.725.428C38.72,52.221,38.684,52.379,38.74,52.441Z" transform="translate(-12.755 -42.594)" fill="#263238"/>
      <path id="Path_124" data-name="Path 124" d="M37.943,53.153a5.386,5.386,0,0,0,4.9-1.1c1.716-1.285,3.8-2.091,4.318-1.741s.855,2.446,2.743,2.818c0,0,.332,4.058,1.756,3.708,1.006-.248.423-4.723,0-7.276a2.1,2.1,0,0,0-1.882-1.809l-2.652-.118-3.311,1.037-3.553,1.082-2.707,1.268Z" transform="translate(-13.337 -45.277)"/>
      <path id="Path_125" data-name="Path 125" d="M46.743,52.271A1.639,1.639,0,0,1,49.4,53.624c.408,2.688-2.083,2.587-2.1,2.514S46.743,52.271,46.743,52.271Z" transform="translate(-8.741 -42.361)" fill="#ffd7c8"/>
      <path id="Path_126" data-name="Path 126" d="M47.535,54.635a.683.683,0,0,0,.126.051.388.388,0,0,0,.312-.051,1.279,1.279,0,0,0,.322-1.127,1.723,1.723,0,0,0-.216-.648.51.51,0,0,0-.372-.3.219.219,0,0,0-.226.175v.141c0,.011-.055-.039-.055-.152a.33.33,0,0,1,.07-.186.313.313,0,0,1,.221-.113.587.587,0,0,1,.5.333,1.7,1.7,0,0,1,.257.721,1.3,1.3,0,0,1-.433,1.279.414.414,0,0,1-.393,0C47.55,54.7,47.53,54.646,47.535,54.635Z" transform="translate(-8.401 -42.02)" fill="#aa6550"/>
      <path id="Path_127" data-name="Path 127" d="M38.581,46.866a2.84,2.84,0,0,0,.252.361,2.06,2.06,0,0,0,.906.654,2.71,2.71,0,0,0,1.6.079,13.738,13.738,0,0,0,1.937-.688,4.8,4.8,0,0,1,2.053-.411,2.175,2.175,0,0,1,1.565.789,1.965,1.965,0,0,1,.478,1.172.853.853,0,0,1-.07.468,3.9,3.9,0,0,1-.03-.456,1.952,1.952,0,0,0-.5-1.043,2.007,2.007,0,0,0-1.439-.659,4.855,4.855,0,0,0-1.958.417,11.607,11.607,0,0,1-1.978.676,2.779,2.779,0,0,1-1.706-.147,2.051,2.051,0,0,1-.926-.778A.833.833,0,0,1,38.581,46.866Z" transform="translate(-12.822 -45.805)" fill="#455a64"/>
      <path id="Path_128" data-name="Path 128" d="M47.733,48.782a2.832,2.832,0,0,0-.372-.338,2.081,2.081,0,0,0-1.193-.372,3.578,3.578,0,0,0-1.832.5A18.1,18.1,0,0,1,42.152,49.7a4.92,4.92,0,0,1-4.3-.524,4.826,4.826,0,0,1-1.062-.913,1.57,1.57,0,0,1-.3-.428,8.553,8.553,0,0,0,1.449,1.155,4.937,4.937,0,0,0,4.131.434A22.349,22.349,0,0,0,44.235,48.3a3.53,3.53,0,0,1,1.942-.462,2.051,2.051,0,0,1,1.258.513,1.026,1.026,0,0,1,.3.434Z" transform="translate(-13.867 -45.145)" fill="#455a64"/>
      <path id="Path_129" data-name="Path 129" d="M44.2,80.172,32.512,69.019l-3.855.975s4.061,9.457,7,12.923c0,0,2.9,4.351,7.694,2.468S44.2,80.172,44.2,80.172Z" transform="translate(-17.784 -30.739)" fill="#ffd7c8"/>
      <path id="Path_130" data-name="Path 130" d="M32.69,61.705H27.723a1.234,1.234,0,0,0-.953.581,1.553,1.553,0,0,0-.2,1.195l5,10.894a1.12,1.12,0,0,0,1.006.688h6.039a.873.873,0,0,0,.674-.52,1.072,1.072,0,0,0-.015-.917L34.456,62.957A2.008,2.008,0,0,0,32.69,61.705Z" transform="translate(-18.848 -35.711)" fill="#455a64"/>
      <path id="Path_131" data-name="Path 131" d="M32.349,62.1H27.382a.814.814,0,0,0-.712.442,1.027,1.027,0,0,0-.033.911l4.876,10.657a1.129,1.129,0,0,0,1.006.688h5.988a.5.5,0,0,0,.407-.267A.623.623,0,0,0,38.946,74L34.125,63.338A1.97,1.97,0,0,0,32.349,62.1Z" transform="translate(-18.839 -35.445)" fill="#263238"/>
      <path id="Path_132" data-name="Path 132" d="M31.354,64.748,28.335,66.1l-.644,2.728,1.454,4.058,5.319.879L32.9,71.979l.2-1.561s1.51-.524,1.51-.778-.186-1.127-.413-1.155a10.6,10.6,0,0,0-1.746.614s1.847-1.64,1.8-1.9-.252-.936-.619-1.014a20.256,20.256,0,0,0-3.356,1.5l-.5,1.234-.423-1.978S32.008,66.106,31.354,64.748Z" transform="translate(-18.267 -33.643)" fill="#ffd7c8"/>
      <path id="Path_133" data-name="Path 133" d="M30.427,69.4a.855.855,0,0,1-.106-.338,1.974,1.974,0,0,1,.5-1.567c.151-.147.267-.2.277-.18a3.75,3.75,0,0,0-.559.958,4.163,4.163,0,0,0-.116,1.127Z" transform="translate(-16.958 -31.897)" fill="#aa6550"/>
      <path id="Path_134" data-name="Path 134" d="M29.429,69.7a7,7,0,0,0,.121-.885,4.27,4.27,0,0,1,.151-.981,1.279,1.279,0,0,1,.775-.874c.72-.293,1.374-.53,1.847-.7a4.1,4.1,0,0,1,.78-.242,3.549,3.549,0,0,1-.74.361c-.468.2-1.122.462-1.832.75a1.184,1.184,0,0,0-.443.3,1.344,1.344,0,0,0-.252.462,4.439,4.439,0,0,0-.176.941,1.958,1.958,0,0,1-.231.868Z" transform="translate(-17.398 -32.783)" fill="#aa6550"/>
      <path id="Path_135" data-name="Path 135" d="M28.978,68.374a1.592,1.592,0,0,1,0-.671c.055-.361.131-.642.176-.637a1.6,1.6,0,0,1,0,.671C29.1,68.1,29.023,68.38,28.978,68.374Z" transform="translate(-17.642 -32.067)" fill="#aa6550"/>
      <path id="Path_136" data-name="Path 136" d="M28.912,63.61a.638.638,0,1,0,.634-.71.6.6,0,0,0-.45.206A.75.75,0,0,0,28.912,63.61Z" transform="translate(-17.657 -34.899)" fill="#fafafa"/>
    </g>
    <g id="freepik--Plant--inject-4" transform="translate(11.008 225.156)">
      <path id="Path_137" data-name="Path 137" d="M18.289,127.272a6.372,6.372,0,0,1,3.663,3.477,13.309,13.309,0,0,1,1.122,5.337A23.3,23.3,0,0,1,20.3,146.6c-2.974-2.142-4.162-6.566-4.645-8.82-.755-3.6-.176-10.606,2.632-10.511" transform="translate(-8.835 -127.265)" fill="#00c569"/>
      <path id="Path_138" data-name="Path 138" d="M21.3,145.327a6.42,6.42,0,0,1,.956-5.788,6.672,6.672,0,0,1,4.846-2.6,2.694,2.694,0,0,1,2.37.755,2.749,2.749,0,0,1,.362,2.508,5.054,5.054,0,0,1-1.424,2.1c-2.078,1.984-4.413,3.472-7.111,3.021" transform="translate(-6.014 -120.698)" fill="#00c569"/>
      <path id="Path_139" data-name="Path 139" d="M19.883,155.129a3.924,3.924,0,0,1,0-.733c0-.524.04-1.195.065-2a22.849,22.849,0,0,1,1.006-6.521,12.706,12.706,0,0,1,3.372-5.4,7.707,7.707,0,0,1,1.51-1.071c.191-.107.352-.158.453-.209s.161-.062.166-.051a11.418,11.418,0,0,0-5.294,6.819,24.583,24.583,0,0,0-1.042,6.442c-.05.84-.1,1.522-.136,2a4.954,4.954,0,0,1-.1.727Z" transform="translate(-6.579 -119.19)" fill="#263238"/>
      <path id="Path_140" data-name="Path 140" d="M17.3,130.473a2.435,2.435,0,0,1,.07.31q.065.349.166.9c.141.778.332,1.91.554,3.308.448,2.818,1.006,6.678,1.555,10.973s.956,8.194,1.218,11.023c.131,1.415.226,2.559.287,3.353q.035.564.06.913a1.154,1.154,0,0,1,0,.316,2,2,0,0,1-.05-.316c-.025-.231-.06-.53-.106-.907-.091-.817-.211-1.95-.362-3.336-.3-2.818-.74-6.718-1.278-11.012s-1.082-8.144-1.485-10.961c-.2-1.381-.362-2.508-.5-3.325-.05-.372-.091-.671-.126-.9a1.406,1.406,0,0,1,0-.333Z" transform="translate(-7.867 -125.084)" fill="#263238"/>
      <path id="Path_141" data-name="Path 141" d="M22.007,147.327a13.06,13.06,0,0,0-7.886-8.859c-.946-.333-2.134-.451-2.768.4s-.292,2.147.2,3.111A10.119,10.119,0,0,0,22,147.615" transform="translate(-11.008 -119.818)" fill="#00c569"/>
      <path id="Path_142" data-name="Path 142" d="M13.644,140.306a3.1,3.1,0,0,1,.594.18,5.425,5.425,0,0,1,.679.276,9.6,9.6,0,0,1,.881.434,10.855,10.855,0,0,1,1.006.626,13.1,13.1,0,0,1,1.112.84,13.963,13.963,0,0,1,3.845,5.286,14.406,14.406,0,0,1,.5,1.392,11.362,11.362,0,0,1,.327,1.251,10.576,10.576,0,0,1,.181,1.06,7.125,7.125,0,0,1,.086.806,4.517,4.517,0,0,1,.01.688c-.055,0-.091-.986-.448-2.514q-.143-.621-.342-1.223a13.825,13.825,0,0,0-.5-1.364,15.882,15.882,0,0,0-1.615-2.818A15.249,15.249,0,0,0,17.8,142.87a12.865,12.865,0,0,0-1.082-.84,10.441,10.441,0,0,0-1.006-.648C14.475,140.633,13.624,140.356,13.644,140.306Z" transform="translate(-9.69 -118.399)" fill="#263238"/>
    </g>
  </g>
</svg>
